<?xml version="1.0" encoding="utf-8"?>
<!-- Generator: Adobe Illustrator 23.0.0, SVG Export Plug-In . SVG Version: 6.00 Build 0)  -->
<svg version="1.1" id="Layer_1" xmlns="http://www.w3.org/2000/svg" xmlns:xlink="http://www.w3.org/1999/xlink" x="0px" y="0px"
	 viewBox="0 0 86.4 80.5" style="enable-background:new 0 0 86.4 80.5;" xml:space="preserve">
<style type="text/css">
	.st0{fill:#606060;}
	.st1{fill:#EF4A23;}
</style>
<g>
	<path class="st0" d="M35.7,73.6l-0.3-1.4h-3.1l-0.9,1.4h-0.6l3.7-5.9h0.6l1.1,5.9H35.7z M34.8,68.2l-2.2,3.4h2.8L34.8,68.2z"/>
	<path class="st0" d="M38,73.6l1.2-5.4h-1.9l0.1-0.5h4.4l-0.1,0.5h-1.9l-1.2,5.4H38z"/>
	<path class="st0" d="M41.3,73.6l1.3-5.9h0.5l-1.2,5.4h2.8l-0.1,0.5H41.3z"/>
	<path class="st0" d="M50,73.6l-0.3-1.4h-3.1l-0.9,1.4h-0.6l3.7-5.9h0.6l1.1,5.9H50z M49.1,68.2l-2.2,3.4h2.8L49.1,68.2z"/>
	<path class="st0" d="M51.2,72.6l0.4-0.4c0.4,0.6,1.1,0.9,1.9,0.9c1.1,0,1.5-0.7,1.5-1.3c0-1.3-2.9-1.1-2.9-2.7c0-0.9,0.9-1.6,2-1.6
		c0.9,0,1.7,0.4,2,0.9l-0.4,0.4c-0.4-0.6-1-0.8-1.7-0.8c-0.8,0-1.4,0.5-1.4,1.1c0,1.2,3,1,3,2.7c0,0.9-0.7,1.8-2.1,1.8
		C52.5,73.7,51.6,73.2,51.2,72.6z"/>
</g>
<path class="st1" d="M43.8,63.5c15.3,0,29,2.8,38.2,7.1c-5.8-7.6-20.9-13-38.5-13c-18,0-33.4,5.6-38.9,13.5
	C13.7,66.4,27.9,63.5,43.8,63.5z"/>
<circle class="st1" cx="51" cy="16.1" r="11.4"/>
<path class="st0" d="M33.8,56.8l9.5-28.7l9.5,28.6c5.2,0.6,10.1,1.6,14.5,3.2c0.1,0,0.3,0.1,0.4,0.1L51.1,15.9H35.5L18.8,60.3
	C23.2,58.7,28.3,57.5,33.8,56.8z"/>
</svg>
