<?xml version="1.0" encoding="utf-8"?>
<!-- Generator: Adobe Illustrator 23.0.0, SVG Export Plug-In . SVG Version: 6.00 Build 0)  -->
<svg version="1.1" id="Layer_1" xmlns="http://www.w3.org/2000/svg" xmlns:xlink="http://www.w3.org/1999/xlink" x="0px" y="0px"
	 viewBox="0 0 119.7 89.9" style="enable-background:new 0 0 119.7 89.9;" xml:space="preserve">
<style type="text/css">
	.st0{fill:#EF4A23;stroke:#000000;stroke-width:7.821454e-02;stroke-miterlimit:10;}
	.st1{fill:#EF4A23;}
</style>
<path class="st0" d="M102.6,39.5c-9.8-10.6-23.1-17.1-37.4-18.4c0.5-0.3,1.2-0.7,1.7-1c0.6-0.3,1.1-0.6,1.5-0.9c1-0.7,6-3.2,6-3.2
	l-0.5-1.1c0,0-3.7,1.7-5.9,2.5c-0.5,0.2-1.1,0.4-1.6,0.6c-1.3,0.5-2.8,1-3.3,1h0c-0.1-0.1-0.1-0.4-0.1-1.9l0-0.9
	c0.1-2.5,2.1-13.5,2.2-13.6L64,2.5c0,0.1-2.3,10.3-2.7,11.7c-0.1,0.3-0.2,0.7-0.4,1.2c-0.3,0.9-0.8,2.6-1.1,3h0
	c-0.2,0-0.8-0.5-1.5-1.1L58,16.8c-1.1-1-4.9-5.3-7.8-8.7L50,7.9l-0.9,0.8l0.1,0.2c1.5,1.8,5.3,7,5.4,7c1.3,1.6,2.6,3.6,3.1,4.4
	c-0.5,0.1-1.4,0.1-1.8,0.1l-0.9,0c-0.3,0-0.7,0-1.1,0c-2.5,0-13.9-0.1-14.4-0.1l0,0.5l0-0.5l0,0.2l0-0.2l0,1.2h0
	c0.2,0,1.6,0.1,3,0.3c1.7,0.2,3.6,0.3,4.9,0.4C35.2,24.8,24.2,31.4,15.9,41C6.8,51.5,1.7,65.1,1.7,79.1c0,0.3,0,0.5,0,0.8
	c0,0.2,0,0.4,0,0.6l1.2,0c0.7-29.6,24.3-54,53.7-55.6c0,0.2-0.2,0.4-0.7,1.1c-0.2,0.3-0.5,0.6-0.7,0.9c-1.3,1.8-9,14.2-9.3,14.7
	l1,0.7l10.2-13.5c1.3-1.5,3-3.2,3.5-3.4c0.2,0.1,0.5,0.7,0.8,1.3c0.2,0.3,0.3,0.7,0.5,1.1c0.8,1.5,2.5,7.3,2.5,7.4l1.2-0.3
	c0,0-0.3-1.6-0.4-2.4c-0.1-0.5-0.6-3.1-0.9-5.2c-0.2-1-0.3-1.9-0.4-2.3c0.3,0,0.6,0,1,0.1l0.5,0.3c0.4,0.3,5.4,3.7,7.1,4.8
	c1.7,1.1,12.1,7.8,12.2,7.9l0.7-1L82,34.6c-0.1-0.1-9.2-6.8-11.1-8.2c-0.3-0.2-0.6-0.5-1-0.8c26.8,4.7,46.5,27.4,47.1,54.9l1.2,0
	c0-0.2,0-0.4,0-0.6c0-0.3,0-0.5,0-0.8C118.2,64.4,112.7,50.3,102.6,39.5z"/>
<path class="st1" d="M25.5,79.2c-0.1-1.2-0.1-3.1-0.1-4.6V51.9h-4.5v9.9c-1.1-1-2.7-1.8-5-1.8c-2.2,0-4.3,0.9-5.9,2.5
	c-1.9,1.9-2.9,4.7-2.9,7.9c0,5.7,3.5,9.9,8.4,9.9c2.3,0,4.4-0.9,5.7-2.4l0.1,2l4.2,0L25.5,79.2z M20.7,67.1c0.1,0.4,0.1,0.9,0.1,1.3
	v3.2c0,0.5,0,0.9-0.1,1.3c-0.5,2.1-2.2,3.5-4.3,3.5c-3.5,0-4.8-3.3-4.8-6.2c0-3.9,1.9-6.4,4.8-6.4h0C18.9,63.8,20.3,65.5,20.7,67.1z
	"/>
<rect x="38.2" y="51.9" class="st1" width="4.5" height="27.9"/>
<path class="st1" d="M49.9,58.3L49.9,58.3c1.6,0,2.8-1.2,2.8-2.7c0-1.6-1.1-2.7-2.7-2.7c-1.6,0-2.7,1.1-2.7,2.7
	C47.3,57.1,48.4,58.3,49.9,58.3z"/>
<rect x="47.7" y="60.4" class="st1" width="4.5" height="19.4"/>
<path class="st1" d="M70.1,60.4l-0.1,1.7c-1-1-2.6-2.1-5.2-2.1c-4.4,0-8.8,3.5-8.8,10.2c0,5.4,3.6,9.5,8.3,9.5c2.1,0,3.9-0.7,5.2-2
	v0.3c0,3.8-1.8,5.8-5.2,5.8c-2.6,0-4.4-1-5-1.4l-0.7-0.4l-1.2,3.7l0.4,0.3c1.5,1,3.9,1.6,6.4,1.6c2.9,0,5.4-0.8,7.1-2.3
	c1.9-1.8,2.8-4.5,2.8-8.8V66c0-2.1,0-3.6,0.1-4.9l0.1-0.7H70.1z M69.6,68.2v3.3c0,0.6-0.1,1.2-0.2,1.6c-0.6,1.8-2.1,3-4,3
	c-3.5,0-4.8-3.2-4.8-6c0-3.8,1.9-6.3,4.8-6.3c2,0,3.5,1.2,4.1,3.1C69.5,67.3,69.6,67.7,69.6,68.2z"/>
<path class="st1" d="M95.8,79.8l0-11.4c0-6.2-3.7-8.4-7-8.4c-1.3,0-2.6,0.4-3.7,1c-0.6,0.3-1.1,0.7-1.6,1.2V51.9h-4.5v27.9h4.5V68.3
	c0-0.6,0.1-1,0.2-1.4c0.5-1.5,1.9-2.9,3.9-2.9c3,0,3.6,2.6,3.6,4.8v11.1L95.8,79.8z"/>
<path class="st1" d="M105.1,56.6V61h4.7v2.5l-4.7,0l0,9.8c0,2.3,0.6,3.5,2.5,3.5c0.9,0,1.4-0.1,1.9-0.2l0.2,2.5
	c-0.6,0.2-1.7,0.4-2.9,0.4c-1.5,0-2.8-0.5-3.6-1.4c-0.9-1-1.3-2.6-1.3-4.8l0-9.9l-2.8,0V61h2.8l0-3.4L105.1,56.6z"/>
<path class="st1" d="M110.5,60.4h-4.7v-4.6l-4.4,1.4l0,3.2h-2.8v3.7h2.8l0,9.3c0,2.4,0.5,4.1,1.5,5.2c0.9,1,2.3,1.6,4,1.6h0
	c1.6,0,2.6-0.3,3.1-0.5l0.4-0.2l-0.2-3.7l-0.7,0.2c-0.4,0.1-0.9,0.2-1.7,0.2c-1.1,0-1.9-0.5-1.9-2.9l0-9.2h4.7V60.4z"/>
<path class="st1" d="M31.5,79.6L31.5,79.6c1.6,0,2.8-1.2,2.8-2.7c0-1.6-1.1-2.7-2.7-2.7c-1.6,0-2.7,1.1-2.7,2.7
	C28.9,78.5,30,79.6,31.5,79.6z"/>
</svg>
