<?xml version="1.0" encoding="utf-8"?>
<!-- Generator: Adobe Illustrator 23.0.0, SVG Export Plug-In . SVG Version: 6.00 Build 0)  -->
<svg version="1.1" id="Layer_1" xmlns="http://www.w3.org/2000/svg" xmlns:xlink="http://www.w3.org/1999/xlink" x="0px" y="0px"
	 viewBox="0 0 111.8 62.8" style="enable-background:new 0 0 111.8 62.8;" xml:space="preserve">
<style type="text/css">
	.st0{fill:#606060;}
	.st1{fill:#616161;}
	.st2{fill:#EF4A23;}
</style>
<g>
	<g>
		<path class="st0" d="M70,54.6c0.9-0.6,1.8-1.2,2.7-1.7c0.1-0.1,0.3-0.1,0.4,0c3.3,0.3,6.4,0,9.5-1.2c8.1-3,13-8.8,14.7-17.3
			c0.4-2,0.4-4,0.3-6c0-0.2,0.1-0.5,0.2-0.7c0.5-0.8,1-1.6,1.5-2.4C103.1,42,88.4,58.4,70,54.6z"/>
	</g>
	<g>
		<path class="st1" d="M102.7,10c-0.1,3-1,5.7-2.2,8.4c-1.6,3.8-3.8,7.2-6.2,10.5c-0.8,1.2-1.7,2.3-2.6,3.4
			c-0.4,0.6-1.1,0.7-1.6,0.3c-0.6-0.4-0.6-1.1-0.2-1.7c1.3-1.8,2.7-3.6,4-5.4c2.3-3.4,4.3-6.9,5.6-10.8c0.5-1.6,1-3.3,0.9-5
			c-0.1-0.8-0.2-1.6-0.5-2.4c-0.7-1.6-2.2-2.1-3.8-2.2c-1.7-0.1-3.4,0.2-5,0.8c-0.3,0.1-0.6,0.2-0.8,0.3c-0.7,0.2-1.2-0.1-1.4-0.7
			C88.7,4.8,89,4.2,89.6,4c0.9-0.3,1.8-0.6,2.7-0.8c1.9-0.4,3.7-0.6,5.6-0.1c2.6,0.6,4.1,2.3,4.6,4.9C102.6,8.7,102.7,9.3,102.7,10z
			"/>
	</g>
	<g>
		<path class="st1" d="M47.5,50.6c0.2-1.3,0.4-2.5,0.7-3.8c0.2-0.7,0.6-1,1.3-0.9c0.6,0.1,0.9,0.6,0.8,1.4c-0.2,1.1-0.4,2.1-0.5,3.2
			c-0.1,1,0,2,0.4,3c0.7,1.6,2.1,2.2,3.7,2.3c2.1,0.2,4.2-0.4,6.2-1.1c4.1-1.5,7.8-3.7,11.4-6.2c1.3-1,2.6-2,4-3
			c0.3-0.2,0.7-0.3,1-0.4c0.5,0,0.8,0.3,0.9,0.8c0.1,0.5,0,0.9-0.4,1.2c-1.1,0.8-2.2,1.7-3.2,2.5c-3.6,2.7-7.4,5-11.6,6.7
			c-2.4,1-4.8,1.7-7.4,1.7c-2.3,0-4.3-0.5-5.8-2.4c-1-1.3-1.2-2.9-1.3-4.6C47.6,50.8,47.6,50.7,47.5,50.6
			C47.6,50.6,47.6,50.6,47.5,50.6z"/>
	</g>
	<g>
		<path class="st2" d="M81,43.5c-1.1,0.9-1.5,0.9-2.1,0.4c-0.5-0.5-0.4-1,0.5-2c-0.4-0.2-0.8-0.4-1.2-0.5c-0.5-0.2-1-0.3-1.5-0.5
			c-0.7-0.2-1-0.9-0.9-1.6c0.2-0.7,0.9-1.1,1.6-1c0.8,0.1,1.6,0.3,2.3,0.3c1.7,0,3.2-0.7,4.4-1.9c0.6-0.6,1.1-1.1,1.7-1.7
			c0.9-0.8,2.1-0.4,2.4,0.7c0.1,0.5-0.1,0.9-0.4,1.3c-0.6,0.7-1.3,1.3-1.9,2c-1.5,1.7-1.9,3.6-1.3,5.8c0,0.2,0.1,0.4,0.1,0.5
			c0.2,0.7-0.2,1.4-0.9,1.6c-0.7,0.2-1.4-0.1-1.7-0.8c-0.2-0.5-0.4-1.1-0.6-1.6C81.3,44.1,81.1,43.8,81,43.5z"/>
	</g>
	<g>
		<path class="st2" d="M100.4,57.9c-1.3,0-2.3-1.1-2.3-2.3c0-1.3,1.1-2.3,2.3-2.3c1.3,0,2.3,1.1,2.3,2.3
			C102.7,56.8,101.6,57.9,100.4,57.9z"/>
	</g>
	<g>
		<path class="st2" d="M50,7.4c-1.3,0-2.3-1-2.3-2.3c0-1.3,1-2.3,2.3-2.3c1.3,0,2.3,1,2.3,2.3C52.2,6.4,51.2,7.4,50,7.4z"/>
	</g>
	<g>
		<path d="M91.8,54c0,0.6-0.5,1.1-1.2,1.1c-0.6,0-1.2-0.5-1.2-1.1c0-0.6,0.5-1.2,1.2-1.2C91.3,52.8,91.8,53.4,91.8,54z"/>
	</g>
	<g>
		<path d="M98.5,48.3c0,0.6-0.5,1.2-1.1,1.2c-0.6,0-1.2-0.5-1.2-1.2c0-0.6,0.5-1.2,1.2-1.2C98,47.1,98.5,47.6,98.5,48.3z"/>
	</g>
	<g>
		<path d="M52.9,13.8c0,0.6-0.5,1.2-1.1,1.2c-0.6,0-1.2-0.5-1.2-1.2c0-0.6,0.5-1.1,1.2-1.1C52.4,12.6,52.9,13.2,52.9,13.8z"/>
	</g>
	<g>
		<path d="M88.2,19.3c0.6,0,1.2,0.5,1.2,1.1c0,0.7-0.5,1.2-1.2,1.2c-0.6,0-1.2-0.5-1.2-1.2C87,19.9,87.6,19.4,88.2,19.3z"/>
	</g>
	<g>
		<path class="st1" d="M95.9,17.1c-1.6-2.4-3.5-4.5-5.8-6.2c-5.6-4.2-11.9-5.8-18.7-4.7c-6.2,1-11.3,4-15.3,8.9
			c-3.1,3.8-4.9,8.2-5.3,13.1c-0.4,3.8,0.2,7.6,1.6,11.2c1.9,4.9,5.1,8.9,9.6,11.8c0.1,0.1,0.3,0.1,0.4,0.1c0.7-0.3,1.4-0.7,2.2-1.1
			c-5.3-3.1-8.9-7.4-10.6-13.1c-1.8-5.8-1.2-11.4,1.5-16.8c1.8-3.5,4.3-6.4,7.6-8.5c3.3-2.1,6.9-3.4,10.9-3.6
			c-0.2,0.2-0.3,0.3-0.4,0.5c-1.5,1.5-5.5,5.5-9.3,9.3l2.4,0.7c4.1-4.1,8.3-8.3,10.2-10.2c0.2-0.2,0.4-0.3,0.7-0.3
			c1.9,0.2,3.8,0.6,5.7,1.3c0.6,0.2,1.1,0.5,1.8,0.7c-0.2,0.2-0.3,0.3-0.5,0.4c-2,2-4,4-6,5.9c-0.2,0.2-0.3,0.3-0.4,0.5
			c-0.4,0.7,0,1.4,0.7,1.6c0.5,0.1,0.9-0.1,1.2-0.5c2.2-2.2,4.4-4.4,6.6-6.6c0.1-0.1,0.2-0.2,0.4-0.3c3.4,2.1,6.1,4.9,8.1,8.4
			c0.4-0.8,0.8-1.4,1.1-2.1C96,17.5,96,17.3,95.9,17.1z"/>
	</g>
	<g>
		<path class="st1" d="M22.8,34.5c0,0.3,0.1,0.7,0.1,0.9c0,0.9-0.8,1.7-1.8,1.7c-1,0-1.6-0.6-1.7-1.4L19,33.3h-7.2L9.9,36
			c-0.4,0.6-1.1,1.1-1.8,1.1c-0.9,0-1.5-0.6-1.5-1.4c0-0.4,0.1-0.8,0.4-1.2l9-12.7c0.6-0.8,1.4-1.4,2.5-1.4h0.1
			c1.2,0,1.8,0.6,1.9,1.7L22.8,34.5z M18.5,30.2l-0.8-5.4L14,30.2H18.5z"/>
		<path class="st1" d="M30.5,35.3c-0.3,1.1-1.1,1.8-2,1.8c-1.2,0-1.8-0.9-1.4-2.3L30,24h-3c-0.9,0-1.6-0.7-1.6-1.6
			c0-0.9,0.7-1.6,1.6-1.6h10.4c0.9,0,1.6,0.7,1.6,1.6c0,0.9-0.7,1.6-1.6,1.6h-3.9L30.5,35.3z"/>
		<path class="st1" d="M39.5,37c-1.2,0-1.8-0.9-1.4-2.3l3.3-12.3c0.3-1.1,1.1-1.8,2-1.8c1.2,0,1.8,0.9,1.4,2.3l-2.9,10.8h6.2
			c0.9,0,1.6,0.7,1.6,1.6c0,0.9-0.7,1.6-1.6,1.6H39.5z"/>
		<path class="st1" d="M67.6,34.5c0,0.3,0.1,0.7,0.1,0.9c0,0.9-0.8,1.7-1.8,1.7c-1,0-1.6-0.6-1.7-1.4l-0.4-2.4h-7.2L54.7,36
			c-0.4,0.6-1.1,1.1-1.8,1.1c-0.9,0-1.5-0.6-1.5-1.4c0-0.4,0.1-0.8,0.4-1.2l9-12.7c0.6-0.8,1.4-1.4,2.5-1.4h0.1
			c1.2,0,1.8,0.6,1.9,1.7L67.6,34.5z M63.2,30.2l-0.8-5.4l-3.7,5.4H63.2z"/>
		<path class="st1" d="M78.7,32.4c0-0.8-0.6-1.3-2.8-2.1c-2.1-0.9-4-2-4-4.4c0-3.3,3-5.4,6.4-5.4c2.5,0,3.9,0.7,4.9,1.4
			c0.5,0.3,0.8,0.8,0.8,1.5c0,1-0.8,1.7-1.8,1.7c-0.4,0-0.7-0.1-1-0.3c-1.1-0.8-2-1.2-3.3-1.2c-1.5,0-2.4,0.8-2.4,1.6
			c0,0.9,0.6,1.2,2.9,2.1c2.2,0.9,3.9,2,3.9,4.4c0,3.4-3,5.4-6.4,5.4c-1.9,0-4.3-0.4-6-1.9c-0.4-0.3-0.7-0.9-0.7-1.5
			c0-1,0.7-1.8,1.7-1.8c0.5,0,0.9,0.3,1.1,0.4c1.4,1.1,2.4,1.6,4,1.6C77.7,34.1,78.7,33.4,78.7,32.4z"/>
	</g>
</g>
</svg>
