<svg xmlns="http://www.w3.org/2000/svg" width="460" height="92" viewBox="0 0 460 92">
  <g fill="none" fill-rule="evenodd" transform="translate(0 -4)">
    <path fill="#393A3D" d="M2.112,4.672 L0.672,4.672 L4.464,10.048 L0.304,16 L1.744,16 L5.184,10.896 L8.64,16 L10.08,16 L5.92,10.064 L9.68,4.672 L8.304,4.672 L5.216,9.248 L2.112,4.672 Z M18.288,5.76 C17.744,5.024 16.608,4.384 15.088,4.384 C13.424,4.384 11.472,5.312 11.472,7.504 C11.472,9.552 13.008,10.208 14.512,10.672 C15.952,11.12 17.28,11.52 17.28,13.104 C17.28,14.56 15.936,15.296 14.768,15.296 C13.584,15.296 12.672,14.672 12.176,13.872 L11.184,14.608 C12,15.728 13.376,16.288 14.752,16.288 C16.544,16.288 18.448,15.296 18.448,13.024 C18.448,10.752 16.688,10.24 15.088,9.712 C13.824,9.296 12.624,8.928 12.624,7.488 C12.624,6.032 13.92,5.36 15.04,5.36 C16.112,5.36 16.896,5.808 17.376,6.496 L18.288,5.76 Z M25.248,4.704 L24.336,4.384 L19.488,15.984 L20.416,16.288 L25.248,4.704 Z M30.208,4.384 C32.192,4.384 33.792,5.536 33.792,7.456 C33.792,8.768 33.056,9.68 32.032,10.016 L32.032,10.048 C33.216,10.336 34.16,11.408 34.16,12.8 C34.16,15.056 32.384,16.288 30.208,16.288 C28.032,16.288 26.256,15.056 26.256,12.8 C26.256,11.328 27.28,10.336 28.384,10.048 L28.384,10.016 C27.376,9.648 26.624,8.848 26.624,7.536 C26.624,5.616 28.224,4.384 30.208,4.384 Z M30.208,5.968 C29.264,5.968 28.576,6.592 28.576,7.568 C28.576,8.48 29.216,9.216 30.208,9.216 C31.12,9.216 31.856,8.48 31.856,7.568 C31.856,6.592 31.072,5.968 30.208,5.968 Z M30.208,10.848 C29.104,10.848 28.24,11.632 28.24,12.784 C28.24,13.968 29.088,14.672 30.208,14.672 C31.312,14.672 32.16,13.968 32.16,12.784 C32.16,11.664 31.296,10.848 30.208,10.848 Z"/>
    <rect width="8" height="8" y="36" fill="#E1279C"/>
    <path fill="#393A3D" d="M203.156,10.704 L203.156,16 L202.004,16 L202.004,4.672 L205.332,4.672 C207.572,4.672 209.204,5.488 209.204,7.696 C209.204,9.376 207.956,10.432 206.308,10.608 L209.62,16 L208.212,16 L205.076,10.704 L203.156,10.704 Z M203.156,5.664 L203.156,9.712 L205.156,9.712 C206.996,9.712 208.052,9.04 208.052,7.696 C208.052,6.208 206.916,5.664 205.204,5.664 L203.156,5.664 Z M215.924,4.704 L215.012,4.384 L210.164,15.984 L211.092,16.288 L215.924,4.704 Z M217.108,16 L224.644,16 L224.644,14.24 L219.54,14.24 L222.804,11.12 C223.812,10.16 224.628,9.152 224.628,7.696 C224.628,5.52 222.82,4.384 220.852,4.384 C218.772,4.384 217.252,5.76 217.028,7.632 L218.9,7.92 C219.044,6.816 219.732,5.984 220.82,5.984 C221.844,5.984 222.628,6.672 222.628,7.728 C222.628,8.608 222.18,9.264 221.476,9.952 L217.108,14.24 L217.108,16 Z M234.644,10.336 C234.644,14 233.22,16.288 230.66,16.288 C228.084,16.288 226.644,14 226.644,10.336 C226.644,6.672 228.084,4.384 230.66,4.384 C233.22,4.384 234.644,6.672 234.644,10.336 Z M232.676,10.336 C232.676,8.752 232.372,5.984 230.66,5.984 C228.932,5.984 228.612,8.752 228.612,10.336 C228.612,11.92 228.932,14.656 230.66,14.656 C232.372,14.656 232.676,11.92 232.676,10.336 Z"/>
    <rect width="20" height="20" x="203" y="37" fill="#FFAD00"/>
    <path fill="#393A3D" d="M113.172,5.76 C112.628,5.024 111.492,4.384 109.972,4.384 C108.308,4.384 106.356,5.312 106.356,7.504 C106.356,9.552 107.892,10.208 109.396,10.672 C110.836,11.12 112.164,11.52 112.164,13.104 C112.164,14.56 110.82,15.296 109.652,15.296 C108.468,15.296 107.556,14.672 107.06,13.872 L106.068,14.608 C106.884,15.728 108.26,16.288 109.636,16.288 C111.428,16.288 113.332,15.296 113.332,13.024 C113.332,10.752 111.572,10.24 109.972,9.712 C108.708,9.296 107.508,8.928 107.508,7.488 C107.508,6.032 108.804,5.36 109.924,5.36 C110.996,5.36 111.78,5.808 112.26,6.496 L113.172,5.76 Z M120.132,4.704 L119.22,4.384 L114.372,15.984 L115.3,16.288 L120.132,4.704 Z M124.676,16 L126.596,16 L126.596,4.672 L124.852,4.672 L121.316,7.52 L122.436,8.848 L124.676,7.008 L124.676,16 Z M134.692,4.672 L137.028,4.672 L134.132,8.864 L134.148,8.88 C134.452,8.752 134.964,8.688 135.348,8.688 C137.348,8.688 138.964,10.256 138.964,12.32 C138.964,14.72 137.156,16.288 134.836,16.288 C132.468,16.288 130.692,14.592 130.692,12.4 C130.692,11.104 131.124,10.224 131.86,9.056 L134.692,4.672 Z M132.644,12.448 C132.644,13.632 133.492,14.656 134.82,14.656 C136.116,14.656 136.996,13.76 136.996,12.416 C136.996,11.136 136.132,10.208 134.852,10.208 C133.556,10.208 132.644,11.12 132.644,12.448 Z"/>
    <rect width="16" height="16" x="101" y="36" fill="#D52D27"/>
    <path fill="#393A3D" d="M302.656,4.672 L301.504,4.672 L301.504,16 L307.936,16 L307.936,14.976 L302.656,14.976 L302.656,4.672 Z M314,4.704 L313.088,4.384 L308.24,15.984 L309.168,16.288 L314,4.704 Z M319.648,16 L319.648,13.648 L314.416,13.648 L314.416,11.952 L319.232,4.672 L321.536,4.672 L321.536,12 L323.12,12 L323.12,13.648 L321.536,13.648 L321.536,16 L319.648,16 Z M319.648,12 L319.648,6.928 L319.616,6.928 L316.4,12 L319.648,12 Z M332.72,10.336 C332.72,14 331.296,16.288 328.736,16.288 C326.16,16.288 324.72,14 324.72,10.336 C324.72,6.672 326.16,4.384 328.736,4.384 C331.296,4.384 332.72,6.672 332.72,10.336 Z M330.752,10.336 C330.752,8.752 330.448,5.984 328.736,5.984 C327.008,5.984 326.688,8.752 326.688,10.336 C326.688,11.92 327.008,14.656 328.736,14.656 C330.448,14.656 330.752,11.92 330.752,10.336 Z"/>
    <rect width="40" height="40" x="300" y="36" fill="#56B620"/>
    <path fill="#393A3D" d="M401.112,4.672 L399.672,4.672 L403.464,10.048 L399.304,16 L400.744,16 L404.184,10.896 L407.64,16 L409.08,16 L404.92,10.064 L408.68,4.672 L407.304,4.672 L404.216,9.248 L401.112,4.672 Z M412.04,4.672 L410.888,4.672 L410.888,16 L417.32,16 L417.32,14.976 L412.04,14.976 L412.04,4.672 Z M423.384,4.704 L422.472,4.384 L417.624,15.984 L418.552,16.288 L423.384,4.704 Z M428.184,4.672 L430.52,4.672 L427.624,8.864 L427.64,8.88 C427.944,8.752 428.456,8.688 428.84,8.688 C430.84,8.688 432.456,10.256 432.456,12.32 C432.456,14.72 430.648,16.288 428.328,16.288 C425.96,16.288 424.184,14.592 424.184,12.4 C424.184,11.104 424.616,10.224 425.352,9.056 L428.184,4.672 Z M426.136,12.448 C426.136,13.632 426.984,14.656 428.312,14.656 C429.608,14.656 430.488,13.76 430.488,12.416 C430.488,11.136 429.624,10.208 428.344,10.208 C427.048,10.208 426.136,11.12 426.136,12.448 Z M442.104,10.336 C442.104,14 440.68,16.288 438.12,16.288 C435.544,16.288 434.104,14 434.104,10.336 C434.104,6.672 435.544,4.384 438.12,4.384 C440.68,4.384 442.104,6.672 442.104,10.336 Z M440.136,10.336 C440.136,8.752 439.832,5.984 438.12,5.984 C436.392,5.984 436.072,8.752 436.072,10.336 C436.072,11.92 436.392,14.656 438.12,14.656 C439.832,14.656 440.136,11.92 440.136,10.336 Z"/>
    <rect width="60" height="60" x="400" y="36" fill="#FFDC00"/>
  </g>
</svg>
